{
  "accessors": [
    {
      "bufferView": 1,
      "componentType": 5126,
      "count": 65532,
      "max": [
        71.79998016357422,
        82.5621109008789,
        4.666317939758301
      ],
      "min": [
        12.697951316833496,
        1.7867865562438965,
        0.0
      ],
      "type": "VEC3"
    },
    {
      "bufferView": 1,
      "byteOffset": 786384,
      "componentType": 5126,
      "count": 65532,
      "max": [
        0.9999338388442993,
        0.9999338388442993,
        1.0
      ],
      "min": [
        -0.9999338388442993,
        -0.9999338388442993,
        0.0017472223844379187
      ],
      "type": "VEC3"
    },
    {
      "bufferView": 0,
      "componentType": 5125,
      "count": 290565,
      "type": "SCALAR"
    },
    {
      "bufferView": 1,
      "byteOffset": 1572768,
      "componentType": 5126,
      "count": 65532,
      "max": [
        71.75768280029297,
        82.32950592041016,
        4.527890205383301
      ],
      "min": [
        13.71294116973877,
        1.765641212463379,
        0.0
      ],
      "type": "VEC3"
    },
    {
      "bufferView": 1,
      "byteOffset": 2359152,
      "componentType": 5126,
      "count": 65532,
      "max": [
        0.9999740719795227,
        0.9999761581420898,
        1.0
      ],
      "min": [
        -0.9999761581420898,
        -0.9999704957008362,
        0.0016284056473523378
      ],
      "type": "VEC3"
    },
    {
      "bufferView": 0,
      "byteOffset": 1162260,
      "componentType": 5125,
      "count": 294117,
      "type": "SCALAR"
    },
    {
      "bufferView": 1,
      "byteOffset": 3145536,
      "componentType": 5126,
      "count": 65532,
      "max": [
        71.75768280029297,
        82.583251953125,
        4.666317939758301
      ],
      "min": [
        12.697951316833496,
        1.7867865562438965,
        0.0
      ],
      "type": "VEC3"
    },
    {
      "bufferView": 1,
      "byteOffset": 3931920,
      "componentType": 5126,
      "count": 65532,
      "max": [
        0.9999784231185913,
        0.9999761581420898,
        1.0
      ],
      "min": [
        -0.9999761581420898,
        -0.9999784231185913,
        0.0011697736335918307
      ],
      "type": "VEC3"
    },
    {
      "bufferView": 0,
      "byteOffset": 2338728,
      "componentType": 5125,
      "count": 269973,
      "type": "SCALAR"
    },
    {
      "bufferView": 1,
      "byteOffset": 4718304,
      "componentType": 5126,
      "count": 39985,
      "max": [
        71.79998016357422,
        82.07576751708984,
        4.666316986083984
      ],
      "min": [
        12.761387825012207,
        1.8290773630142212,
        0.0
      ],
      "type": "VEC3"
    },
    {
      "bufferView": 1,
      "byteOffset": 5198124,
      "componentType": 5126,
      "count": 39985,
      "max": [
        0.9999784231185913,
        0.9999761581420898,
        1.0
      ],
      "min": [
        -0.9999761581420898,
        -0.9999704957008362,
        0.001248707645572722
      ],
      "type": "VEC3"
    },
    {
      "bufferView": 0,
      "byteOffset": 3418620,
      "componentType": 5125,
      "count": 77253,
      "type": "SCALAR"
    }
  ],
  "asset": {
    "extras": {
      "author": "Kustarnik01 (https://sketchfab.com/Kustarnik01)",
      "license": "CC-BY-4.0 (http://creativecommons.org/licenses/by/4.0/)",
      "source": "https://sketchfab.com/3d-models/real-madrid-9fc74ee839eb4e909627f80fcbc04cfd",
      "title": "Real Madrid"
    },
    "generator": "Sketchfab-12.68.0",
    "version": "2.0"
  },
  "bufferViews": [
    {
      "buffer": 0,
      "byteLength": 3727632,
      "name": "floatBufferViews",
      "target": 34963
    },
    {
      "buffer": 0,
      "byteLength": 5677944,
      "byteOffset": 3727632,
      "byteStride": 12,
      "name": "floatBufferViews",
      "target": 34962
    }
  ],
  "buffers": [
    {
      "byteLength": 9405576,
      "uri": "scene.bin"
    }
  ],
  "materials": [
    {
      "doubleSided": true,
      "name": "Scene_-_Root",
      "pbrMetallicRoughness": {
        "metallicFactor": 0.0,
        "roughnessFactor": 0.6
      }
    }
  ],
  "meshes": [
    {
      "name": "Object_0",
      "primitives": [
        {
          "attributes": {
            "NORMAL": 1,
            "POSITION": 0
          },
          "indices": 2,
          "material": 0,
          "mode": 4
        }
      ]
    },
    {
      "name": "Object_1",
      "primitives": [
        {
          "attributes": {
            "NORMAL": 4,
            "POSITION": 3
          },
          "indices": 5,
          "material": 0,
          "mode": 4
        }
      ]
    },
    {
      "name": "Object_2",
      "primitives": [
        {
          "attributes": {
            "NORMAL": 7,
            "POSITION": 6
          },
          "indices": 8,
          "material": 0,
          "mode": 4
        }
      ]
    },
    {
      "name": "Object_3",
      "primitives": [
        {
          "attributes": {
            "NORMAL": 10,
            "POSITION": 9
          },
          "indices": 11,
          "material": 0,
          "mode": 4
        }
      ]
    }
  ],
  "nodes": [
    {
      "children": [
        1
      ],
      "matrix": [
        1.0,
        0.0,
        0.0,
        0.0,
        0.0,
        2.220446049250313e-16,
        -1.0,
        0.0,
        0.0,
        1.0,
        2.220446049250313e-16,
        0.0,
        0.0,
        0.0,
        0.0,
        1.0
      ],
      "name": "Sketchfab_model"
    },
    {
      "children": [
        2,
        3,
        4,
        5
      ],
      "name": "real_madrid.stl.cleaner.materialmerger.gles"
    },
    {
      "mesh": 0,
      "name": "Object_2"
    },
    {
      "mesh": 1,
      "name": "Object_3"
    },
    {
      "mesh": 2,
      "name": "Object_4"
    },
    {
      "mesh": 3,
      "name": "Object_5"
    }
  ],
  "scene": 0,
  "scenes": [
    {
      "name": "Sketchfab_Scene",
      "nodes": [
        0
      ]
    }
  ]
}
