{
  "accessors": [
    {
      "bufferView": 2,
      "componentType": 5126,
      "count": 65503,
      "max": [
        304.60162353515625,
        256.7571716308594,
        58.56088638305664
      ],
      "min": [
        1.7928924560546875,
        0.0,
        0.0
      ],
      "type": "VEC3"
    },
    {
      "bufferView": 2,
      "byteOffset": 786036,
      "componentType": 5126,
      "count": 65503,
      "max": [
        0.996618390083313,
        0.9967711567878723,
        0.8712316155433655
      ],
      "min": [
        -0.9975388050079346,
        -0.9695722460746765,
        -0.9527636170387268
      ],
      "type": "VEC3"
    },
    {
      "bufferView": 1,
      "componentType": 5126,
      "count": 65503,
      "max": [
        1.0,
        1.0
      ],
      "min": [
        0.0,
        0.0
      ],
      "type": "VEC2"
    },
    {
      "bufferView": 0,
      "componentType": 5125,
      "count": 152091,
      "type": "SCALAR"
    },
    {
      "bufferView": 2,
      "byteOffset": 1572072,
      "componentType": 5126,
      "count": 40410,
      "max": [
        306.3945007324219,
        258.4093322753906,
        45.490020751953125
      ],
      "min": [
        0.0,
        0.7078857421875,
        0.0
      ],
      "type": "VEC3"
    },
    {
      "bufferView": 2,
      "byteOffset": 2056992,
      "componentType": 5126,
      "count": 40410,
      "max": [
        0.996955931186676,
        0.9957911372184753,
        0.8802704215049744
      ],
      "min": [
        -0.9970199465751648,
        -0.9967710971832275,
        -0.8189782500267029
      ],
      "type": "VEC3"
    },
    {
      "bufferView": 1,
      "byteOffset": 524024,
      "componentType": 5126,
      "count": 40410,
      "max": [
        1.0,
        1.0
      ],
      "min": [
        0.0,
        0.0
      ],
      "type": "VEC2"
    },
    {
      "bufferView": 0,
      "byteOffset": 608364,
      "componentType": 5125,
      "count": 93423,
      "type": "SCALAR"
    }
  ],
  "asset": {
    "extras": {
      "author": "INVERS REALITY (https://sketchfab.com/h_jawahery)",
      "license": "CC-BY-4.0 (http://creativecommons.org/licenses/by/4.0/)",
      "source": "https://sketchfab.com/3d-models/stadium-4cacd471a7604b9ea99dfa7992baddbd",
      "title": "Stadium"
    },
    "generator": "Sketchfab-12.68.0",
    "version": "2.0"
  },
  "bufferViews": [
    {
      "buffer": 0,
      "byteLength": 982056,
      "name": "floatBufferViews",
      "target": 34963
    },
    {
      "buffer": 0,
      "byteLength": 847304,
      "byteOffset": 982056,
      "byteStride": 8,
      "name": "floatBufferViews",
      "target": 34962
    },
    {
      "buffer": 0,
      "byteLength": 2541912,
      "byteOffset": 1829360,
      "byteStride": 12,
      "name": "floatBufferViews",
      "target": 34962
    }
  ],
  "buffers": [
    {
      "byteLength": 4371272,
      "uri": "scene.bin"
    }
  ],
  "extensionsUsed": [
    "KHR_materials_clearcoat"
  ],
  "materials": [
    {
      "doubleSided": true,
      "extensions": {
        "KHR_materials_clearcoat": {
          "clearcoatFactor": 0.7495713477919851,
          "clearcoatRoughnessFactor": 0.7252506551386584
        }
      },
      "name": "mat2",
      "pbrMetallicRoughness": {
        "baseColorFactor": [
          1.0,
          0.0,
          0.0,
          1.0
        ],
        "metallicFactor": 0.8042929062619704,
        "roughnessFactor": 0.5605174835379312
      }
    }
  ],
  "meshes": [
    {
      "name": "Object_0",
      "primitives": [
        {
          "attributes": {
            "NORMAL": 1,
            "POSITION": 0,
            "TEXCOORD_0": 2
          },
          "indices": 3,
          "material": 0,
          "mode": 4
        }
      ]
    },
    {
      "name": "Object_1",
      "primitives": [
        {
          "attributes": {
            "NORMAL": 5,
            "POSITION": 4,
            "TEXCOORD_0": 6
          },
          "indices": 7,
          "material": 0,
          "mode": 4
        }
      ]
    }
  ],
  "nodes": [
    {
      "children": [
        1
      ],
      "matrix": [
        0.013333333656191826,
        0.0,
        0.0,
        0.0,
        0.0,
        2.9605948040227372e-18,
        -0.013333333656191826,
        0.0,
        0.0,
        0.013333333656191826,
        2.9605948040227372e-18,
        0.0,
        0.0,
        0.0,
        0.0,
        1.0
      ],
      "name": "Sketchfab_model"
    },
    {
      "children": [
        2
      ],
      "matrix": [
        1.0,
        0.0,
        0.0,
        0.0,
        0.0,
        1.0,
        0.0,
        0.0,
        0.0,
        0.0,
        1.0,
        0.0,
        -153.19725036621094,
        -129.2046661376953,
        0.25440746545791626,
        1.0
      ],
      "name": "ae252576c7d041f7a101688e3c8d86d7.3ds.cleaner.gles"
    },
    {
      "children": [
        3,
        4
      ],
      "name": "/sketchfab-data/processing/49a434e411c44eb8abb65348a303f7d7/ae252576c7d041f7a101688e3c8d86d7.3ds"
    },
    {
      "mesh": 0,
      "name": "Object_3"
    },
    {
      "mesh": 1,
      "name": "Object_4"
    }
  ],
  "scene": 0,
  "scenes": [
    {
      "name": "Sketchfab_Scene",
      "nodes": [
        0
      ]
    }
  ]
}
