{
  "accessors": [
    {
      "bufferView": 2,
      "componentType": 5126,
      "count": 9600,
      "max": [
        13.12430191040039,
        -35.81897735595703,
        13.210721015930176
      ],
      "min": [
        -10.827123641967773,
        -45.960838317871094,
        -2.193289279937744
      ],
      "type": "VEC3"
    },
    {
      "bufferView": 2,
      "byteOffset": 115200,
      "componentType": 5126,
      "count": 9600,
      "max": [
        0.9995221495628357,
        0.9925922155380249,
        0.9994930624961853
      ],
      "min": [
        -0.9995221495628357,
        -0.9973602294921875,
        -0.9994302988052368
      ],
      "type": "VEC3"
    },
    {
      "bufferView": 1,
      "componentType": 5126,
      "count": 9600,
      "max": [
        0.3277380168437958,
        0.99853515625
      ],
      "min": [
        0.0,
        0.0
      ],
      "type": "VEC2"
    },
    {
      "bufferView": 0,
      "componentType": 5125,
      "count": 46152,
      "type": "SCALAR"
    },
    {
      "bufferView": 2,
      "byteOffset": 230400,
      "componentType": 5126,
      "count": 9600,
      "max": [
        13.228678703308105,
        -35.81897735595703,
        9.255378723144531
      ],
      "min": [
        -8.66639518737793,
        -45.960838317871094,
        -11.26126766204834
      ],
      "type": "VEC3"
    },
    {
      "bufferView": 2,
      "byteOffset": 345600,
      "componentType": 5126,
      "count": 9600,
      "max": [
        0.9999933242797852,
        0.9925922155380249,
        1.0
      ],
      "min": [
        -0.9999066591262817,
        -0.9973602294921875,
        -1.0
      ],
      "type": "VEC3"
    },
    {
      "bufferView": 1,
      "byteOffset": 76800,
      "componentType": 5126,
      "count": 9600,
      "max": [
        0.3277380168437958,
        0.99853515625
      ],
      "min": [
        0.0,
        0.0
      ],
      "type": "VEC2"
    },
    {
      "bufferView": 0,
      "byteOffset": 184608,
      "componentType": 5125,
      "count": 46158,
      "type": "SCALAR"
    },
    {
      "bufferView": 2,
      "byteOffset": 460800,
      "componentType": 5126,
      "count": 7539,
      "max": [
        5.980535984039307,
        -35.81897735595703,
        0.8574619889259338
      ],
      "min": [
        -21.846332550048828,
        -65.46331024169922,
        -13.210721015930176
      ],
      "type": "VEC3"
    },
    {
      "bufferView": 2,
      "byteOffset": 551268,
      "componentType": 5126,
      "count": 7539,
      "max": [
        1.0,
        1.0,
        1.0
      ],
      "min": [
        -1.0,
        -1.0,
        -1.0
      ],
      "type": "VEC3"
    },
    {
      "bufferView": 1,
      "byteOffset": 153600,
      "componentType": 5126,
      "count": 7539,
      "max": [
        0.9953063726425171,
        0.99853515625
      ],
      "min": [
        0.0,
        0.0
      ],
      "type": "VEC2"
    },
    {
      "bufferView": 0,
      "byteOffset": 369240,
      "componentType": 5125,
      "count": 34038,
      "type": "SCALAR"
    },
    {
      "bufferView": 2,
      "byteOffset": 641736,
      "componentType": 5126,
      "count": 9918,
      "max": [
        15.345259666442871,
        -0.5152664184570313,
        15.353422164916992
      ],
      "min": [
        -15.361584663391113,
        -60.51885986328125,
        -15.353422164916992
      ],
      "type": "VEC3"
    },
    {
      "bufferView": 2,
      "byteOffset": 760752,
      "componentType": 5126,
      "count": 9918,
      "max": [
        1.0,
        1.0,
        1.0
      ],
      "min": [
        -1.0,
        -1.0,
        -1.0
      ],
      "type": "VEC3"
    },
    {
      "bufferView": 1,
      "byteOffset": 213912,
      "componentType": 5126,
      "count": 9918,
      "max": [
        0.99853515625,
        0.99853515625
      ],
      "min": [
        0.0,
        0.0
      ],
      "type": "VEC2"
    },
    {
      "bufferView": 0,
      "byteOffset": 505392,
      "componentType": 5125,
      "count": 43914,
      "type": "SCALAR"
    },
    {
      "bufferView": 2,
      "byteOffset": 879768,
      "componentType": 5126,
      "count": 4978,
      "max": [
        21.830007553100586,
        -35.81897735595703,
        6.6914753913879395
      ],
      "min": [
        -13.245003700256348,
        -65.46331024169922,
        -0.8574619889259338
      ],
      "type": "VEC3"
    },
    {
      "bufferView": 2,
      "byteOffset": 939504,
      "componentType": 5126,
      "count": 4978,
      "max": [
        1.0,
        1.0,
        1.0
      ],
      "min": [
        -1.0,
        -1.0,
        -1.0
      ],
      "type": "VEC3"
    },
    {
      "bufferView": 1,
      "byteOffset": 293256,
      "componentType": 5126,
      "count": 4978,
      "max": [
        0.9953063726425171,
        0.99853515625
      ],
      "min": [
        0.0,
        0.0
      ],
      "type": "VEC2"
    },
    {
      "bufferView": 0,
      "byteOffset": 681048,
      "componentType": 5125,
      "count": 21726,
      "type": "SCALAR"
    }
  ],
  "asset": {
    "extras": {
      "author": "Berezgen (https://sketchfab.com/Berezgen)",
      "license": "CC-BY-4.0 (http://creativecommons.org/licenses/by/4.0/)",
      "source": "https://sketchfab.com/3d-models/copa-del-rey-3d-cup-4120bebe817c432e9a00affca0be7c14",
      "title": "Copa Del Rey 3d cup"
    },
    "generator": "Sketchfab-12.68.0",
    "version": "2.0"
  },
  "bufferViews": [
    {
      "buffer": 0,
      "byteLength": 767952,
      "name": "floatBufferViews",
      "target": 34963
    },
    {
      "buffer": 0,
      "byteLength": 333080,
      "byteOffset": 767952,
      "byteStride": 8,
      "name": "floatBufferViews",
      "target": 34962
    },
    {
      "buffer": 0,
      "byteLength": 999240,
      "byteOffset": 1101032,
      "byteStride": 12,
      "name": "floatBufferViews",
      "target": 34962
    }
  ],
  "buffers": [
    {
      "byteLength": 2100272,
      "uri": "scene.bin"
    }
  ],
  "materials": [
    {
      "doubleSided": true,
      "name": "material_0",
      "pbrMetallicRoughness": {
        "metallicFactor": 0.0,
        "roughnessFactor": 0.6
      }
    }
  ],
  "meshes": [
    {
      "name": "Object_0",
      "primitives": [
        {
          "attributes": {
            "NORMAL": 1,
            "POSITION": 0,
            "TEXCOORD_0": 2
          },
          "indices": 3,
          "material": 0,
          "mode": 4
        }
      ]
    },
    {
      "name": "Object_1",
      "primitives": [
        {
          "attributes": {
            "NORMAL": 5,
            "POSITION": 4,
            "TEXCOORD_0": 6
          },
          "indices": 7,
          "material": 0,
          "mode": 4
        }
      ]
    },
    {
      "name": "Object_2",
      "primitives": [
        {
          "attributes": {
            "NORMAL": 9,
            "POSITION": 8,
            "TEXCOORD_0": 10
          },
          "indices": 11,
          "material": 0,
          "mode": 4
        }
      ]
    },
    {
      "name": "Object_3",
      "primitives": [
        {
          "attributes": {
            "NORMAL": 13,
            "POSITION": 12,
            "TEXCOORD_0": 14
          },
          "indices": 15,
          "material": 0,
          "mode": 4
        }
      ]
    },
    {
      "name": "Object_4",
      "primitives": [
        {
          "attributes": {
            "NORMAL": 17,
            "POSITION": 16,
            "TEXCOORD_0": 18
          },
          "indices": 19,
          "material": 0,
          "mode": 4
        }
      ]
    }
  ],
  "nodes": [
    {
      "children": [
        1
      ],
      "matrix": [
        1.1102230246251565e-15,
        -8.881784197001252e-16,
        1.0,
        0.0,
        4.440892098500626e-16,
        -1.0,
        -1.5543122344752192e-15,
        0.0,
        1.0,
        1.1102230246251565e-15,
        -4.4408920985006237e-16,
        0.0,
        -0.008165359497070313,
        -32.98928833007813,
        32.99745559692382,
        1.0
      ],
      "name": "Sketchfab_model"
    },
    {
      "children": [
        2,
        3,
        4,
        5,
        6
      ],
      "name": "Copa Del Rey.obj.cleaner.materialmerger.gles"
    },
    {
      "mesh": 0,
      "name": "Object_2"
    },
    {
      "mesh": 1,
      "name": "Object_3"
    },
    {
      "mesh": 2,
      "name": "Object_4"
    },
    {
      "mesh": 3,
      "name": "Object_5"
    },
    {
      "mesh": 4,
      "name": "Object_6"
    }
  ],
  "scene": 0,
  "scenes": [
    {
      "name": "Sketchfab_Scene",
      "nodes": [
        0
      ]
    }
  ]
}
