{
  "accessors": [
    {
      "bufferView": 1,
      "componentType": 5126,
      "count": 65532,
      "max": [
        2.2386200428009033,
        2.352750062942505,
        11.045419692993164
      ],
      "min": [
        -2.2386200428009033,
        -2.2143800258636475,
        -0.9873300194740295
      ],
      "type": "VEC3"
    },
    {
      "bufferView": 1,
      "byteOffset": 786384,
      "componentType": 5126,
      "count": 65532,
      "max": [
        0.9998908638954163,
        0.9999566674232483,
        1.0
      ],
      "min": [
        -0.9999793171882629,
        -0.9999566674232483,
        -0.9999837279319763
      ],
      "type": "VEC3"
    },
    {
      "bufferView": 0,
      "componentType": 5125,
      "count": 326394,
      "type": "SCALAR"
    },
    {
      "bufferView": 1,
      "byteOffset": 1572768,
      "componentType": 5126,
      "count": 65532,
      "max": [
        2.1669199466705322,
        2.345449924468994,
        11.01688003540039
      ],
      "min": [
        -2.352750062942505,
        -2.352750062942505,
        -1.0
      ],
      "type": "VEC3"
    },
    {
      "bufferView": 1,
      "byteOffset": 2359152,
      "componentType": 5126,
      "count": 65532,
      "max": [
        0.9999993443489075,
        0.9999997019767761,
        1.0
      ],
      "min": [
        -0.9999688267707825,
        -0.9999997019767761,
        -1.0
      ],
      "type": "VEC3"
    },
    {
      "bufferView": 0,
      "byteOffset": 1305576,
      "componentType": 5125,
      "count": 207168,
      "type": "SCALAR"
    },
    {
      "bufferView": 1,
      "byteOffset": 3145536,
      "componentType": 5126,
      "count": 65533,
      "max": [
        2.1956000328063965,
        2.1214001178741455,
        11.003990173339844
      ],
      "min": [
        -1.5816700458526611,
        -2.1577699184417725,
        -0.6837900280952454
      ],
      "type": "VEC3"
    },
    {
      "bufferView": 1,
      "byteOffset": 3931932,
      "componentType": 5126,
      "count": 65533,
      "max": [
        0.9999926686286926,
        0.9999632239341736,
        1.0
      ],
      "min": [
        -0.9999894499778748,
        -0.9996991753578186,
        -0.9999956488609314
      ],
      "type": "VEC3"
    },
    {
      "bufferView": 0,
      "byteOffset": 2134248,
      "componentType": 5125,
      "count": 93480,
      "type": "SCALAR"
    },
    {
      "bufferView": 1,
      "byteOffset": 4718328,
      "componentType": 5126,
      "count": 34182,
      "max": [
        2.352750062942505,
        2.352750062942505,
        10.528969764709473
      ],
      "min": [
        -1.9501700401306152,
        -2.3454599380493164,
        -1.0
      ],
      "type": "VEC3"
    },
    {
      "bufferView": 1,
      "byteOffset": 5128512,
      "componentType": 5126,
      "count": 34182,
      "max": [
        0.9999993443489075,
        0.9998943209648132,
        1.0
      ],
      "min": [
        -0.9978450536727905,
        -0.9993215203285217,
        -1.0
      ],
      "type": "VEC3"
    },
    {
      "bufferView": 0,
      "byteOffset": 2508168,
      "componentType": 5125,
      "count": 42411,
      "type": "SCALAR"
    }
  ],
  "asset": {
    "extras": {
      "author": "JuanG3D (https://sketchfab.com/juang3d)",
      "license": "CC-BY-4.0 (http://creativecommons.org/licenses/by/4.0/)",
      "source": "https://sketchfab.com/3d-models/fifa-club-world-cup-award-ceb1615824c744d4a0b470c229b04b87",
      "title": "FIFA Club World Cup Award"
    },
    "generator": "Sketchfab-12.65.0",
    "version": "2.0"
  },
  "bufferViews": [
    {
      "buffer": 0,
      "byteLength": 2677812,
      "name": "floatBufferViews",
      "target": 34963
    },
    {
      "buffer": 0,
      "byteLength": 5538696,
      "byteOffset": 2677812,
      "byteStride": 12,
      "name": "floatBufferViews",
      "target": 34962
    }
  ],
  "buffers": [
    {
      "byteLength": 8216508,
      "uri": "scene.bin"
    }
  ],
  "materials": [
    {
      "doubleSided": true,
      "name": "Scene_-_Root",
      "pbrMetallicRoughness": {
        "baseColorFactor": [
          0.2806968848888971,
          0.2115324609983139,
          0.056294902072887426,
          1.0
        ],
        "roughnessFactor": 0.05
      }
    }
  ],
  "meshes": [
    {
      "name": "BASE",
      "primitives": [
        {
          "attributes": {
            "NORMAL": 1,
            "POSITION": 0
          },
          "indices": 2,
          "material": 0,
          "mode": 4
        }
      ]
    },
    {
      "name": "BASE",
      "primitives": [
        {
          "attributes": {
            "NORMAL": 4,
            "POSITION": 3
          },
          "indices": 5,
          "material": 0,
          "mode": 4
        }
      ]
    },
    {
      "name": "BASE",
      "primitives": [
        {
          "attributes": {
            "NORMAL": 7,
            "POSITION": 6
          },
          "indices": 8,
          "material": 0,
          "mode": 4
        }
      ]
    },
    {
      "name": "BASE",
      "primitives": [
        {
          "attributes": {
            "NORMAL": 10,
            "POSITION": 9
          },
          "indices": 11,
          "material": 0,
          "mode": 4
        }
      ]
    }
  ],
  "nodes": [
    {
      "children": [
        1
      ],
      "matrix": [
        1.0,
        0.0,
        0.0,
        0.0,
        0.0,
        2.220446049250313e-16,
        -1.0,
        0.0,
        0.0,
        1.0,
        2.220446049250313e-16,
        0.0,
        0.0,
        0.0,
        0.0,
        1.0
      ],
      "name": "Sketchfab_model"
    },
    {
      "children": [
        2
      ],
      "name": "Root"
    },
    {
      "children": [
        3,
        4,
        5,
        6
      ],
      "matrix": [
        1.0,
        0.0,
        0.0,
        0.0,
        0.0,
        1.0,
        0.0,
        0.0,
        0.0,
        0.0,
        1.0,
        0.0,
        0.0,
        0.0,
        -3.55135,
        1.0
      ],
      "name": "BASE"
    },
    {
      "mesh": 0,
      "name": "BASE"
    },
    {
      "mesh": 1,
      "name": "BASE"
    },
    {
      "mesh": 2,
      "name": "BASE"
    },
    {
      "mesh": 3,
      "name": "BASE"
    }
  ],
  "scene": 0,
  "scenes": [
    {
      "name": "Sketchfab_Scene",
      "nodes": [
        0
      ]
    }
  ]
}
