{
  "accessors": [
    {
      "bufferView": 2,
      "componentType": 5126,
      "count": 65532,
      "max": [
        7.600304126739502,
        11.107351303100586,
        4.646261215209961
      ],
      "min": [
        -7.265803337097168,
        3.8074865341186523,
        -0.7981141209602356
      ],
      "type": "VEC3"
    },
    {
      "bufferView": 2,
      "byteOffset": 786384,
      "componentType": 5126,
      "count": 65532,
      "max": [
        0.9999144077301025,
        0.9999297857284546,
        0.9999948143959045
      ],
      "min": [
        -0.9999152421951294,
        -0.9999103546142578,
        -0.29574713110923767
      ],
      "type": "VEC3"
    },
    {
      "bufferView": 1,
      "componentType": 5126,
      "count": 65532,
      "max": [
        1.0,
        1.0
      ],
      "min": [
        -0.0022447616793215275,
        -0.754536509513855
      ],
      "type": "VEC2"
    },
    {
      "bufferView": 0,
      "componentType": 5125,
      "count": 218004,
      "type": "SCALAR"
    },
    {
      "bufferView": 2,
      "byteOffset": 1572768,
      "componentType": 5126,
      "count": 65532,
      "max": [
        2.3282933235168457,
        11.107351303100586,
        4.646261215209961
      ],
      "min": [
        -1.5418723821640015,
        7.15455436706543,
        4.1710591316223145
      ],
      "type": "VEC3"
    },
    {
      "bufferView": 2,
      "byteOffset": 2359152,
      "componentType": 5126,
      "count": 65532,
      "max": [
        0.9999164938926697,
        0.9998399019241333,
        0.9994059801101685
      ],
      "min": [
        -0.999921441078186,
        -0.9997392892837524,
        -0.18594898283481598
      ],
      "type": "VEC3"
    },
    {
      "bufferView": 1,
      "byteOffset": 524256,
      "componentType": 5126,
      "count": 65532,
      "max": [
        1.0,
        1.0
      ],
      "min": [
        -0.004533843137323856,
        -0.7568255662918091
      ],
      "type": "VEC2"
    },
    {
      "bufferView": 0,
      "byteOffset": 872016,
      "componentType": 5125,
      "count": 250635,
      "type": "SCALAR"
    },
    {
      "bufferView": 2,
      "byteOffset": 3145536,
      "componentType": 5126,
      "count": 65532,
      "max": [
        7.601518154144287,
        24.290700912475586,
        4.640106201171875
      ],
      "min": [
        -11.829197883605957,
        -4.749821186065674,
        -5.4486799240112305
      ],
      "type": "VEC3"
    },
    {
      "bufferView": 2,
      "byteOffset": 3931920,
      "componentType": 5126,
      "count": 65532,
      "max": [
        0.999993085861206,
        0.9985950589179993,
        0.9999008178710938
      ],
      "min": [
        -0.9999841451644897,
        -0.9999974966049194,
        -0.9999982714653015
      ],
      "type": "VEC3"
    },
    {
      "bufferView": 1,
      "byteOffset": 1048512,
      "componentType": 5126,
      "count": 65532,
      "max": [
        1.0,
        1.0
      ],
      "min": [
        0.0,
        -0.48493993282318115
      ],
      "type": "VEC2"
    },
    {
      "bufferView": 0,
      "byteOffset": 1874556,
      "componentType": 5125,
      "count": 280794,
      "type": "SCALAR"
    },
    {
      "bufferView": 2,
      "byteOffset": 4718304,
      "componentType": 5126,
      "count": 63981,
      "max": [
        11.836820602416992,
        24.293975830078125,
        4.634988784790039
      ],
      "min": [
        -11.836820602416992,
        -14.173248291015625,
        -13.407145500183105
      ],
      "type": "VEC3"
    },
    {
      "bufferView": 2,
      "byteOffset": 5486076,
      "componentType": 5126,
      "count": 63981,
      "max": [
        0.9999992847442627,
        0.9999754428863525,
        1.0
      ],
      "min": [
        -0.9999992847442627,
        -1.0,
        -1.0
      ],
      "type": "VEC3"
    },
    {
      "bufferView": 1,
      "byteOffset": 1572768,
      "componentType": 5126,
      "count": 63981,
      "max": [
        1.0,
        1.0
      ],
      "min": [
        0.0,
        -0.6529403924942017
      ],
      "type": "VEC2"
    },
    {
      "bufferView": 0,
      "byteOffset": 2997732,
      "componentType": 5125,
      "count": 364377,
      "type": "SCALAR"
    }
  ],
  "asset": {
    "extras": {
      "author": "cristianflorian9 (https://sketchfab.com/cristianflorian9)",
      "license": "CC-BY-4.0 (http://creativecommons.org/licenses/by/4.0/)",
      "source": "https://sketchfab.com/3d-models/ucl-cristi-a441abecf63e4a79af80246aeb14acd4",
      "title": "UCL CRISTI"
    },
    "generator": "Sketchfab-12.68.0",
    "version": "2.0"
  },
  "bufferViews": [
    {
      "buffer": 0,
      "byteLength": 4455240,
      "name": "floatBufferViews",
      "target": 34963
    },
    {
      "buffer": 0,
      "byteLength": 2084616,
      "byteOffset": 4455240,
      "byteStride": 8,
      "name": "floatBufferViews",
      "target": 34962
    },
    {
      "buffer": 0,
      "byteLength": 6253848,
      "byteOffset": 6539856,
      "byteStride": 12,
      "name": "floatBufferViews",
      "target": 34962
    }
  ],
  "buffers": [
    {
      "byteLength": 12793704,
      "uri": "scene.bin"
    }
  ],
  "materials": [
    {
      "doubleSided": true,
      "name": "Gold_-_Rough",
      "pbrMetallicRoughness": {
        "baseColorFactor": [
          0.951456,
          0.895955,
          0.818252,
          1.0
        ],
        "metallicFactor": 0.3,
        "roughnessFactor": 0.2
      }
    }
  ],
  "meshes": [
    {
      "name": "Object_0",
      "primitives": [
        {
          "attributes": {
            "NORMAL": 1,
            "POSITION": 0,
            "TEXCOORD_0": 2
          },
          "indices": 3,
          "material": 0,
          "mode": 4
        }
      ]
    },
    {
      "name": "Object_1",
      "primitives": [
        {
          "attributes": {
            "NORMAL": 5,
            "POSITION": 4,
            "TEXCOORD_0": 6
          },
          "indices": 7,
          "material": 0,
          "mode": 4
        }
      ]
    },
    {
      "name": "Object_2",
      "primitives": [
        {
          "attributes": {
            "NORMAL": 9,
            "POSITION": 8,
            "TEXCOORD_0": 10
          },
          "indices": 11,
          "material": 0,
          "mode": 4
        }
      ]
    },
    {
      "name": "Object_3",
      "primitives": [
        {
          "attributes": {
            "NORMAL": 13,
            "POSITION": 12,
            "TEXCOORD_0": 14
          },
          "indices": 15,
          "material": 0,
          "mode": 4
        }
      ]
    }
  ],
  "nodes": [
    {
      "children": [
        1
      ],
      "matrix": [
        1.0,
        0.0,
        0.0,
        0.0,
        0.0,
        2.220446049250313e-16,
        -1.0,
        0.0,
        0.0,
        1.0,
        2.220446049250313e-16,
        0.0,
        0.0,
        0.0,
        0.0,
        1.0
      ],
      "name": "Sketchfab_model"
    },
    {
      "children": [
        2
      ],
      "name": "root"
    },
    {
      "children": [
        3
      ],
      "matrix": [
        1.0,
        0.0,
        0.0,
        0.0,
        0.0,
        2.220446049250313e-16,
        1.0,
        0.0,
        0.0,
        -1.0,
        2.220446049250313e-16,
        0.0,
        0.0,
        0.0,
        0.0,
        1.0
      ],
      "name": "GLTF_SceneRootNode"
    },
    {
      "children": [
        4,
        5,
        6,
        7
      ],
      "matrix": [
        1.0,
        0.0,
        0.0,
        0.0,
        0.0,
        1.0,
        0.0,
        0.0,
        0.0,
        0.0,
        1.0,
        0.0,
        -0.0009068454382941127,
        14.191329002380371,
        4.420596122741699,
        1.0
      ],
      "name": "engraving. -  logo_0"
    },
    {
      "mesh": 0,
      "name": "Object_4"
    },
    {
      "mesh": 1,
      "name": "Object_5"
    },
    {
      "mesh": 2,
      "name": "Object_6"
    },
    {
      "mesh": 3,
      "name": "Object_7"
    }
  ],
  "scene": 0,
  "scenes": [
    {
      "name": "Sketchfab_Scene",
      "nodes": [
        0
      ]
    }
  ]
}
