{
  "accessors": [
    {
      "bufferView": 1,
      "componentType": 5126,
      "count": 65532,
      "max": [
        1.680357813835144,
        3.4006307125091553,
        2.8956761360168457
      ],
      "min": [
        -3.482090950012207,
        -2.453640937805176,
        -4.690337181091309
      ],
      "type": "VEC3"
    },
    {
      "bufferView": 1,
      "byteOffset": 786384,
      "componentType": 5126,
      "count": 65532,
      "max": [
        0.9999948740005493,
        0.9999220371246338,
        0.9999534487724304
      ],
      "min": [
        -0.99997878074646,
        -0.9999672770500183,
        -0.9999633431434631
      ],
      "type": "VEC3"
    },
    {
      "bufferView": 0,
      "componentType": 5125,
      "count": 338880,
      "type": "SCALAR"
    },
    {
      "bufferView": 1,
      "byteOffset": 1572768,
      "componentType": 5126,
      "count": 44640,
      "max": [
        1.680357813835144,
        3.4006307125091553,
        2.919325113296509
      ],
      "min": [
        -3.4726877212524414,
        -2.449673652648926,
        -4.690337181091309
      ],
      "type": "VEC3"
    },
    {
      "bufferView": 1,
      "byteOffset": 2108448,
      "componentType": 5126,
      "count": 44640,
      "max": [
        0.9999948740005493,
        0.9999483227729797,
        0.9998136162757874
      ],
      "min": [
        -0.9999986290931702,
        -0.9999642968177795,
        -0.9998509287834167
      ],
      "type": "VEC3"
    },
    {
      "bufferView": 0,
      "byteOffset": 1355520,
      "componentType": 5125,
      "count": 181287,
      "type": "SCALAR"
    }
  ],
  "asset": {
    "extras": {
      "author": "Izaskun_Arraiz (https://sketchfab.com/Izaskun_Arraiz)",
      "license": "CC-BY-4.0 (http://creativecommons.org/licenses/by/4.0/)",
      "source": "https://sketchfab.com/3d-models/male-human-body-9350c70c446d403eadb43e87cd43f3cd",
      "title": "Male human body"
    },
    "generator": "Sketchfab-12.68.0",
    "version": "2.0"
  },
  "bufferViews": [
    {
      "buffer": 0,
      "byteLength": 2080668,
      "name": "floatBufferViews",
      "target": 34963
    },
    {
      "buffer": 0,
      "byteLength": 2644128,
      "byteOffset": 2080668,
      "byteStride": 12,
      "name": "floatBufferViews",
      "target": 34962
    }
  ],
  "buffers": [
    {
      "byteLength": 4724796,
      "uri": "scene.bin"
    }
  ],
  "materials": [
    {
      "doubleSided": true,
      "name": "material_0",
      "pbrMetallicRoughness": {
        "metallicFactor": 0.0,
        "roughnessFactor": 0.6
      }
    }
  ],
  "meshes": [
    {
      "name": "Object_0",
      "primitives": [
        {
          "attributes": {
            "NORMAL": 1,
            "POSITION": 0
          },
          "indices": 2,
          "material": 0,
          "mode": 4
        }
      ]
    },
    {
      "name": "Object_1",
      "primitives": [
        {
          "attributes": {
            "NORMAL": 4,
            "POSITION": 3
          },
          "indices": 5,
          "material": 0,
          "mode": 4
        }
      ]
    }
  ],
  "nodes": [
    {
      "children": [
        1
      ],
      "matrix": [
        1.0,
        0.0,
        0.0,
        0.0,
        0.0,
        2.220446049250313e-16,
        -1.0,
        0.0,
        0.0,
        1.0,
        2.220446049250313e-16,
        0.0,
        0.0,
        0.0,
        0.0,
        1.0
      ],
      "name": "Sketchfab_model"
    },
    {
      "children": [
        2,
        3
      ],
      "name": "SkinBodyFinal.OBJ.cleaner.materialmerger.gles"
    },
    {
      "mesh": 0,
      "name": "Object_2"
    },
    {
      "mesh": 1,
      "name": "Object_3"
    }
  ],
  "scene": 0,
  "scenes": [
    {
      "name": "Sketchfab_Scene",
      "nodes": [
        0
      ]
    }
  ]
}
